<svg width="153" height="38" viewBox="0 0 153 38" fill="none" xmlns="http://www.w3.org/2000/svg">
<path d="M15.956 0.550887V18.0349H13.844C13.532 18.0349 13.268 17.9869 13.052 17.8909C12.844 17.7869 12.636 17.6109 12.428 17.3629L4.18401 6.93489C4.21601 7.24689 4.23601 7.55089 4.244 7.84689C4.26 8.13489 4.268 8.40689 4.268 8.66289V18.0349H0.692005V0.550887H2.828C3.004 0.550887 3.152 0.558887 3.272 0.574887C3.392 0.590887 3.50001 0.622887 3.596 0.670887C3.692 0.710887 3.784 0.770887 3.872 0.850887C3.96001 0.930887 4.06001 1.03889 4.17201 1.17489L12.488 11.6749C12.448 11.3389 12.42 11.0149 12.404 10.7029C12.388 10.3829 12.38 10.0829 12.38 9.80289V0.550887H15.956Z" fill="#DDA15E"/>
<path d="M36.5083 9.28689C36.5083 10.5509 36.2883 11.7269 35.8483 12.8149C35.4163 13.9029 34.8043 14.8509 34.0123 15.6589C33.2203 16.4589 32.2643 17.0869 31.1443 17.5429C30.0323 17.9989 28.7963 18.2269 27.4363 18.2269C26.0763 18.2269 24.8363 17.9989 23.7163 17.5429C22.5963 17.0869 21.6363 16.4589 20.8363 15.6589C20.0443 14.8509 19.4283 13.9029 18.9883 12.8149C18.5563 11.7269 18.3403 10.5509 18.3403 9.28689C18.3403 8.02289 18.5563 6.84689 18.9883 5.75889C19.4283 4.67089 20.0443 3.72689 20.8363 2.92689C21.6363 2.12689 22.5963 1.49889 23.7163 1.04289C24.8363 0.586887 26.0763 0.358887 27.4363 0.358887C28.7963 0.358887 30.0323 0.590887 31.1443 1.05489C32.2643 1.51089 33.2203 2.13889 34.0123 2.93889C34.8043 3.73889 35.4163 4.68289 35.8483 5.77089C36.2883 6.85889 36.5083 8.03089 36.5083 9.28689ZM32.3563 9.28689C32.3563 8.42289 32.2443 7.64689 32.0203 6.95889C31.7963 6.26289 31.4723 5.67489 31.0483 5.19489C30.6323 4.71489 30.1203 4.34689 29.5123 4.09089C28.9043 3.83489 28.2123 3.70689 27.4363 3.70689C26.6523 3.70689 25.9523 3.83489 25.3363 4.09089C24.7283 4.34689 24.2123 4.71489 23.7883 5.19489C23.3723 5.67489 23.0523 6.26289 22.8283 6.95889C22.6043 7.64689 22.4923 8.42289 22.4923 9.28689C22.4923 10.1589 22.6043 10.9429 22.8283 11.6389C23.0523 12.3269 23.3723 12.9109 23.7883 13.3909C24.2123 13.8709 24.7283 14.2389 25.3363 14.4949C25.9523 14.7429 26.6523 14.8669 27.4363 14.8669C28.2123 14.8669 28.9043 14.7429 29.5123 14.4949C30.1203 14.2389 30.6323 13.8709 31.0483 13.3909C31.4723 12.9109 31.7963 12.3269 32.0203 11.6389C32.2443 10.9429 32.3563 10.1589 32.3563 9.28689Z" fill="#DDA15E"/>
<path d="M44.5831 8.77089C45.1351 8.77089 45.6031 8.70289 45.9871 8.56689C46.3791 8.42289 46.6991 8.22689 46.9471 7.97889C47.1951 7.73089 47.3751 7.44289 47.4871 7.11489C47.5991 6.77889 47.6551 6.41889 47.6551 6.03489C47.6551 5.26689 47.4031 4.66689 46.8991 4.23489C46.4031 3.80289 45.6311 3.58689 44.5831 3.58689H42.9511V8.77089H44.5831ZM53.1991 18.0349H49.5271C48.8471 18.0349 48.3591 17.7789 48.0631 17.2669L45.1591 12.1909C45.0231 11.9749 44.8711 11.8189 44.7031 11.7229C44.5351 11.6189 44.2951 11.5669 43.9831 11.5669H42.9511V18.0349H38.8951V0.550887H44.5831C45.8471 0.550887 46.9231 0.682887 47.8111 0.946887C48.7071 1.20289 49.4351 1.56289 49.9951 2.02689C50.5631 2.49089 50.9751 3.03889 51.2311 3.67089C51.4871 4.30289 51.6151 4.99089 51.6151 5.73489C51.6151 6.30289 51.5391 6.83889 51.3871 7.34289C51.2351 7.84689 51.0111 8.31489 50.7151 8.74689C50.4191 9.17089 50.0511 9.55089 49.6111 9.88689C49.1791 10.2229 48.6791 10.4989 48.1111 10.7149C48.3751 10.8509 48.6231 11.0229 48.8551 11.2309C49.0871 11.4309 49.2951 11.6709 49.4791 11.9509L53.1991 18.0349Z" fill="#DDA15E"/>
<path d="M66.881 3.76689H61.961V18.0349H57.905V3.76689H52.985V0.550887H66.881V3.76689Z" fill="#DDA15E"/>
<path d="M84.206 0.550887V18.0349H80.126V10.6429H73.022V18.0349H68.942V0.550887H73.022V7.85889H80.126V0.550887H84.206Z" fill="#DDA15E"/>
<path d="M111.418 0.550887L106.018 18.0349H102.346L99.0583 7.19889C98.9943 7.03089 98.9343 6.84689 98.8783 6.64689C98.8223 6.43889 98.7663 6.22289 98.7103 5.99889C98.6543 6.22289 98.5983 6.43889 98.5423 6.64689C98.4863 6.84689 98.4263 7.03089 98.3623 7.19889L95.0263 18.0349H91.3543L85.9543 0.550887H89.3623C89.7142 0.550887 90.0063 0.630887 90.2383 0.790887C90.4783 0.950887 90.6343 1.16289 90.7063 1.42689L93.1063 10.5469C93.1783 10.8349 93.2503 11.1509 93.3223 11.4949C93.3943 11.8309 93.4663 12.1829 93.5383 12.5509C93.6823 11.7989 93.8583 11.1309 94.0663 10.5469L96.8983 1.42689C96.9703 1.20289 97.1223 1.00289 97.3543 0.826887C97.5943 0.642887 97.8823 0.550887 98.2183 0.550887H99.4183C99.7703 0.550887 100.054 0.634887 100.27 0.802886C100.486 0.962887 100.65 1.17089 100.762 1.42689L103.57 10.5469C103.778 11.1069 103.954 11.7429 104.098 12.4549C104.162 12.0949 104.226 11.7589 104.29 11.4469C104.362 11.1269 104.434 10.8269 104.506 10.5469L106.906 1.42689C106.97 1.19489 107.122 0.990886 107.362 0.814887C107.602 0.638887 107.89 0.550887 108.226 0.550887H111.418Z" fill="#DDA15E"/>
<path d="M117.249 3.67089V7.75089H122.745V10.7509H117.249V14.9149H124.425V18.0349H113.169V0.550887H124.425V3.67089H117.249Z" fill="#DDA15E"/>
<path d="M136.586 4.10289C136.466 4.29489 136.338 4.43889 136.202 4.53489C136.074 4.63089 135.906 4.67889 135.698 4.67889C135.514 4.67889 135.314 4.62289 135.098 4.51089C134.89 4.39089 134.65 4.25889 134.378 4.11489C134.114 3.97089 133.81 3.84289 133.466 3.73089C133.122 3.61089 132.73 3.55089 132.29 3.55089C131.53 3.55089 130.962 3.71489 130.586 4.04289C130.218 4.36289 130.034 4.79889 130.034 5.35089C130.034 5.70289 130.146 5.99489 130.37 6.22689C130.594 6.45889 130.886 6.65889 131.246 6.82689C131.614 6.99489 132.03 7.15089 132.494 7.29489C132.966 7.43089 133.446 7.58689 133.934 7.76289C134.422 7.93089 134.898 8.13089 135.362 8.36289C135.834 8.59489 136.25 8.89089 136.61 9.25089C136.978 9.61089 137.274 10.0509 137.498 10.5709C137.722 11.0829 137.834 11.7029 137.834 12.4309C137.834 13.2389 137.694 13.9949 137.414 14.6989C137.134 15.4029 136.726 16.0189 136.19 16.5469C135.662 17.0669 135.006 17.4789 134.222 17.7829C133.446 18.0789 132.562 18.2269 131.57 18.2269C131.026 18.2269 130.47 18.1709 129.902 18.0589C129.342 17.9469 128.798 17.7909 128.27 17.5909C127.742 17.3829 127.246 17.1389 126.782 16.8589C126.318 16.5789 125.914 16.2669 125.57 15.9229L126.77 14.0269C126.866 13.8909 126.99 13.7789 127.142 13.6909C127.302 13.5949 127.474 13.5469 127.658 13.5469C127.898 13.5469 128.138 13.6229 128.378 13.7749C128.626 13.9269 128.902 14.0949 129.206 14.2789C129.518 14.4629 129.874 14.6309 130.274 14.7829C130.674 14.9349 131.146 15.0109 131.69 15.0109C132.426 15.0109 132.998 14.8509 133.406 14.5309C133.814 14.2029 134.018 13.6869 134.018 12.9829C134.018 12.5749 133.906 12.2429 133.682 11.9869C133.458 11.7309 133.162 11.5189 132.794 11.3509C132.434 11.1829 132.022 11.0349 131.558 10.9069C131.094 10.7789 130.618 10.6389 130.13 10.4869C129.642 10.3269 129.166 10.1349 128.702 9.91089C128.238 9.67889 127.822 9.37889 127.454 9.01089C127.094 8.63489 126.802 8.17089 126.578 7.61889C126.354 7.05889 126.242 6.37089 126.242 5.55489C126.242 4.89889 126.374 4.25889 126.638 3.63489C126.902 3.01089 127.29 2.45489 127.802 1.96689C128.314 1.47889 128.942 1.09089 129.686 0.802886C130.43 0.506886 131.282 0.358887 132.242 0.358887C132.778 0.358887 133.298 0.402887 133.802 0.490887C134.314 0.570887 134.798 0.694887 135.254 0.862886C135.71 1.02289 136.134 1.21889 136.526 1.45089C136.926 1.67489 137.282 1.93089 137.594 2.21889L136.586 4.10289Z" fill="#DDA15E"/>
<path d="M152.779 3.76689H147.859V18.0349H143.803V3.76689H138.883V0.550887H152.779V3.76689Z" fill="#DDA15E"/>
<path d="M12.294 34.0619C12.0947 34.8592 11.7267 35.5339 11.19 36.0859C10.6533 36.6226 9.99401 37.0289 9.21201 37.3049C8.43001 37.5809 7.56367 37.7189 6.61301 37.7189C5.37101 37.7189 4.28234 37.4506 3.34701 36.9139C2.41167 36.3772 1.68334 35.6182 1.162 34.6369C0.640672 33.6402 0.380005 32.4596 0.380005 31.0949C0.380005 29.7302 0.640672 28.5572 1.162 27.5759C1.68334 26.5792 2.41167 25.8126 3.34701 25.2759C4.29767 24.7392 5.40934 24.4709 6.68201 24.4709C7.60201 24.4709 8.42234 24.6012 9.14301 24.8619C9.86367 25.1226 10.4693 25.5136 10.96 26.0349C11.466 26.5409 11.834 27.1849 12.064 27.9669L10.316 28.7489C10.086 27.8289 9.67967 27.1542 9.097 26.7249C8.52967 26.2802 7.70934 26.0579 6.63601 26.0579C5.76201 26.0579 4.98767 26.2572 4.313 26.6559C3.65367 27.0546 3.14 27.6296 2.772 28.3809C2.404 29.1322 2.22 30.0369 2.22 31.0949C2.22 32.1529 2.404 33.0576 2.772 33.8089C3.15534 34.5602 3.669 35.1352 4.313 35.5339C4.97234 35.9326 5.71601 36.1319 6.544 36.1319C7.74001 36.1319 8.66 35.9096 9.304 35.4649C9.948 35.0202 10.3543 34.3532 10.523 33.4639L12.294 34.0619Z" fill="#DDA15E"/>
<path d="M30.3289 24.6549H32.1689V37.5349H30.3289V31.8079H23.1299V37.5349H21.2899V24.6549H23.1299V30.2209H30.3289V24.6549Z" fill="#DDA15E"/>
<path d="M40.6159 37.5349L45.8369 24.6549H48.0219L53.2429 37.5349H51.2879L47.5619 27.9899L46.9409 26.2879H46.9179L46.2969 27.9899L42.5709 37.5349H40.6159ZM43.2839 34.0159V32.4289H50.5749V34.0159H43.2839Z" fill="#DDA15E"/>
<path d="M61.9276 37.5349V24.6549H67.2866C68.6973 24.6549 69.8243 24.9999 70.6676 25.6899C71.511 26.3646 71.9326 27.2922 71.9326 28.4729C71.9326 29.6689 71.511 30.6042 70.6676 31.2789C69.8243 31.9536 68.6973 32.2909 67.2866 32.2909H63.7676V37.5349H61.9276ZM70.5986 37.5349L66.7346 31.8769L68.2986 31.0949L72.7146 37.5349H70.5986ZM63.7676 30.7269H67.2406C68.1913 30.7269 68.9043 30.5429 69.3796 30.1749C69.855 29.8069 70.0926 29.2472 70.0926 28.4959C70.0926 27.7446 69.855 27.1849 69.3796 26.8169C68.9043 26.4336 68.1913 26.2419 67.2406 26.2419H63.7676V30.7269Z" fill="#DDA15E"/>
<path d="M86.3979 25.3679V37.5349H84.5579V25.3679H86.3979ZM91.1129 24.6549V26.2419H79.8199V24.6549H91.1129Z" fill="#DDA15E"/>
<path d="M99.9599 37.5349V24.6549H109.62V26.2419H101.8V30.2209H107.918V31.8079H101.8V35.9479H109.919V37.5349H99.9599Z" fill="#DDA15E"/>
<path d="M119.122 37.5349V24.6549H124.481C125.892 24.6549 127.019 24.9999 127.862 25.6899C128.705 26.3646 129.127 27.2922 129.127 28.4729C129.127 29.6689 128.705 30.6042 127.862 31.2789C127.019 31.9536 125.892 32.2909 124.481 32.2909H120.962V37.5349H119.122ZM127.793 37.5349L123.929 31.8769L125.493 31.0949L129.909 37.5349H127.793ZM120.962 30.7269H124.435C125.386 30.7269 126.099 30.5429 126.574 30.1749C127.049 29.8069 127.287 29.2472 127.287 28.4959C127.287 27.7446 127.049 27.1849 126.574 26.8169C126.099 26.4336 125.386 26.2419 124.435 26.2419H120.962V30.7269Z" fill="#DDA15E"/>
<path d="M143.558 37.7189C142.086 37.7189 140.875 37.4659 139.924 36.9599C138.974 36.4539 138.253 35.8022 137.762 35.0049L139.142 33.7399C139.495 34.4912 140.055 35.0816 140.821 35.5109C141.588 35.9249 142.531 36.1319 143.65 36.1319C144.356 36.1319 144.954 36.0629 145.444 35.9249C145.95 35.7716 146.334 35.5569 146.594 35.2809C146.87 34.9896 147.008 34.6292 147.008 34.1999C147.008 33.8472 146.909 33.5482 146.709 33.3029C146.525 33.0576 146.265 32.8506 145.927 32.6819C145.605 32.5132 145.23 32.3906 144.8 32.3139L141.994 31.7389C141.335 31.6009 140.722 31.4092 140.154 31.1639C139.587 30.9186 139.127 30.5736 138.774 30.1289C138.437 29.6689 138.268 29.0709 138.268 28.3349C138.268 27.6296 138.475 26.9856 138.889 26.4029C139.303 25.8202 139.894 25.3526 140.66 24.9999C141.442 24.6472 142.37 24.4709 143.443 24.4709C144.287 24.4709 145.038 24.5706 145.697 24.7699C146.357 24.9539 146.939 25.2452 147.445 25.6439C147.951 26.0426 148.388 26.5409 148.756 27.1389L147.376 28.3809C147.1 27.8289 146.778 27.3842 146.41 27.0469C146.058 26.6942 145.636 26.4412 145.145 26.2879C144.67 26.1346 144.095 26.0579 143.42 26.0579C142.378 26.0579 141.565 26.2726 140.982 26.7019C140.4 27.1312 140.108 27.6372 140.108 28.2199C140.108 28.5879 140.2 28.8869 140.384 29.1169C140.584 29.3469 140.852 29.5386 141.189 29.6919C141.542 29.8299 141.933 29.9449 142.362 30.0369L145.352 30.6579C145.981 30.7806 146.556 30.9722 147.077 31.2329C147.614 31.4936 148.043 31.8462 148.365 32.2909C148.687 32.7202 148.848 33.2799 148.848 33.9699C148.848 34.7366 148.626 35.4036 148.181 35.9709C147.737 36.5382 147.116 36.9752 146.318 37.2819C145.536 37.5732 144.616 37.7189 143.558 37.7189Z" fill="#DDA15E"/>
</svg>
